<mxfile host="app.diagrams.net" agent="Mozilla/5.0 (Windows NT 10.0; Win64; x64) AppleWebKit/537.36 (KHTML, like Gecko) Chrome/132.0.0.0 Safari/537.36 OPR/117.0.0.0" version="26.2.9">
  <diagram name="Página-1" id="iRN-KduNFbrqfbHuYGZ2">
    <mxGraphModel grid="1" page="1" gridSize="10" guides="1" tooltips="1" connect="1" arrows="1" fold="1" pageScale="2" pageWidth="827" pageHeight="1169" math="0" shadow="0">
      <root>
        <mxCell id="0" />
        <mxCell id="1" parent="0" />
        <mxCell id="BR51yle5kO3aftTN3EHV-1" value="Comunicador" style="shape=umlActor;verticalLabelPosition=bottom;verticalAlign=top;html=1;outlineConnect=0;" vertex="1" parent="1">
          <mxGeometry x="935" y="310" width="30" height="60" as="geometry" />
        </mxCell>
        <mxCell id="BR51yle5kO3aftTN3EHV-2" value="Central" style="shape=umlActor;verticalLabelPosition=bottom;verticalAlign=top;html=1;outlineConnect=0;" vertex="1" parent="1">
          <mxGeometry x="760" y="612.5" width="30" height="60" as="geometry" />
        </mxCell>
        <mxCell id="BR51yle5kO3aftTN3EHV-3" value="Estação" style="shape=umlActor;verticalLabelPosition=bottom;verticalAlign=top;html=1;outlineConnect=0;" vertex="1" parent="1">
          <mxGeometry x="1035" y="490" width="30" height="60" as="geometry" />
        </mxCell>
        <mxCell id="BR51yle5kO3aftTN3EHV-4" value="Drone" style="shape=umlActor;verticalLabelPosition=bottom;verticalAlign=top;html=1;outlineConnect=0;" vertex="1" parent="1">
          <mxGeometry x="170" y="175" width="30" height="60" as="geometry" />
        </mxCell>
        <mxCell id="BR51yle5kO3aftTN3EHV-14" style="edgeStyle=orthogonalEdgeStyle;rounded=0;orthogonalLoop=1;jettySize=auto;html=1;exitX=1;exitY=0.5;exitDx=0;exitDy=0;entryX=0;entryY=0.5;entryDx=0;entryDy=0;dashed=1;" edge="1" parent="1" source="BR51yle5kO3aftTN3EHV-5" target="BR51yle5kO3aftTN3EHV-6">
          <mxGeometry relative="1" as="geometry" />
        </mxCell>
        <mxCell id="BR51yle5kO3aftTN3EHV-22" style="edgeStyle=orthogonalEdgeStyle;rounded=0;orthogonalLoop=1;jettySize=auto;html=1;exitX=0;exitY=0.5;exitDx=0;exitDy=0;" edge="1" parent="1" source="BR51yle5kO3aftTN3EHV-5">
          <mxGeometry relative="1" as="geometry">
            <mxPoint x="220" y="208" as="targetPoint" />
          </mxGeometry>
        </mxCell>
        <mxCell id="BR51yle5kO3aftTN3EHV-5" value="Iniciar comunicação" style="ellipse;whiteSpace=wrap;html=1;" vertex="1" parent="1">
          <mxGeometry x="280" y="170" width="180" height="75" as="geometry" />
        </mxCell>
        <mxCell id="BR51yle5kO3aftTN3EHV-15" style="edgeStyle=orthogonalEdgeStyle;rounded=0;orthogonalLoop=1;jettySize=auto;html=1;exitX=0.5;exitY=1;exitDx=0;exitDy=0;entryX=0.5;entryY=0;entryDx=0;entryDy=0;dashed=1;" edge="1" parent="1" source="BR51yle5kO3aftTN3EHV-6" target="BR51yle5kO3aftTN3EHV-7">
          <mxGeometry relative="1" as="geometry" />
        </mxCell>
        <mxCell id="BR51yle5kO3aftTN3EHV-24" style="edgeStyle=orthogonalEdgeStyle;rounded=0;orthogonalLoop=1;jettySize=auto;html=1;exitX=1;exitY=0.5;exitDx=0;exitDy=0;entryX=0;entryY=0.5;entryDx=0;entryDy=0;dashed=1;" edge="1" parent="1" source="BR51yle5kO3aftTN3EHV-6" target="BR51yle5kO3aftTN3EHV-13">
          <mxGeometry relative="1" as="geometry" />
        </mxCell>
        <mxCell id="BR51yle5kO3aftTN3EHV-6" value="Estabelecer comunicação&amp;nbsp;&lt;div&gt;segura&lt;/div&gt;" style="ellipse;whiteSpace=wrap;html=1;" vertex="1" parent="1">
          <mxGeometry x="600" y="170" width="180" height="75" as="geometry" />
        </mxCell>
        <mxCell id="BR51yle5kO3aftTN3EHV-18" style="edgeStyle=orthogonalEdgeStyle;rounded=0;orthogonalLoop=1;jettySize=auto;html=1;exitX=0.5;exitY=1;exitDx=0;exitDy=0;entryX=0.5;entryY=0;entryDx=0;entryDy=0;dashed=1;" edge="1" parent="1" source="BR51yle5kO3aftTN3EHV-7" target="BR51yle5kO3aftTN3EHV-8">
          <mxGeometry relative="1" as="geometry" />
        </mxCell>
        <mxCell id="BR51yle5kO3aftTN3EHV-29" style="edgeStyle=orthogonalEdgeStyle;rounded=0;orthogonalLoop=1;jettySize=auto;html=1;exitX=1;exitY=0.5;exitDx=0;exitDy=0;" edge="1" parent="1" source="BR51yle5kO3aftTN3EHV-7">
          <mxGeometry relative="1" as="geometry">
            <mxPoint x="920" y="348" as="targetPoint" />
          </mxGeometry>
        </mxCell>
        <mxCell id="BR51yle5kO3aftTN3EHV-7" value="Enviar dados para a&amp;nbsp;&lt;div&gt;central de controle&lt;/div&gt;" style="ellipse;whiteSpace=wrap;html=1;" vertex="1" parent="1">
          <mxGeometry x="600" y="310" width="180" height="75" as="geometry" />
        </mxCell>
        <mxCell id="BR51yle5kO3aftTN3EHV-33" style="edgeStyle=orthogonalEdgeStyle;rounded=0;orthogonalLoop=1;jettySize=auto;html=1;exitX=0.5;exitY=1;exitDx=0;exitDy=0;entryX=1;entryY=0.5;entryDx=0;entryDy=0;dashed=1;" edge="1" parent="1" source="BR51yle5kO3aftTN3EHV-8" target="BR51yle5kO3aftTN3EHV-10">
          <mxGeometry relative="1" as="geometry" />
        </mxCell>
        <mxCell id="BR51yle5kO3aftTN3EHV-8" value="Receber dados" style="ellipse;whiteSpace=wrap;html=1;" vertex="1" parent="1">
          <mxGeometry x="600" y="475" width="180" height="75" as="geometry" />
        </mxCell>
        <mxCell id="BR51yle5kO3aftTN3EHV-31" style="edgeStyle=orthogonalEdgeStyle;rounded=0;orthogonalLoop=1;jettySize=auto;html=1;exitX=0.5;exitY=0;exitDx=0;exitDy=0;entryX=0.5;entryY=1;entryDx=0;entryDy=0;dashed=1;" edge="1" parent="1" source="BR51yle5kO3aftTN3EHV-9" target="BR51yle5kO3aftTN3EHV-11">
          <mxGeometry relative="1" as="geometry" />
        </mxCell>
        <mxCell id="BR51yle5kO3aftTN3EHV-9" value="Transmitir comandos&amp;nbsp;&lt;div&gt;em tempo real&lt;/div&gt;" style="ellipse;whiteSpace=wrap;html=1;" vertex="1" parent="1">
          <mxGeometry x="280" y="475" width="180" height="75" as="geometry" />
        </mxCell>
        <mxCell id="BR51yle5kO3aftTN3EHV-34" style="edgeStyle=orthogonalEdgeStyle;rounded=0;orthogonalLoop=1;jettySize=auto;html=1;exitX=0;exitY=0.5;exitDx=0;exitDy=0;entryX=0.5;entryY=1;entryDx=0;entryDy=0;dashed=1;" edge="1" parent="1" source="BR51yle5kO3aftTN3EHV-10" target="BR51yle5kO3aftTN3EHV-9">
          <mxGeometry relative="1" as="geometry" />
        </mxCell>
        <mxCell id="BR51yle5kO3aftTN3EHV-10" value="Enviar comandos&amp;nbsp;&lt;div&gt;para o drone&lt;/div&gt;" style="ellipse;whiteSpace=wrap;html=1;" vertex="1" parent="1">
          <mxGeometry x="450" y="605" width="180" height="75" as="geometry" />
        </mxCell>
        <mxCell id="BR51yle5kO3aftTN3EHV-30" style="edgeStyle=orthogonalEdgeStyle;rounded=0;orthogonalLoop=1;jettySize=auto;html=1;exitX=0;exitY=0.5;exitDx=0;exitDy=0;" edge="1" parent="1" source="BR51yle5kO3aftTN3EHV-11">
          <mxGeometry relative="1" as="geometry">
            <mxPoint x="190" y="275" as="targetPoint" />
          </mxGeometry>
        </mxCell>
        <mxCell id="BR51yle5kO3aftTN3EHV-11" value="Receber e executar comandos" style="ellipse;whiteSpace=wrap;html=1;" vertex="1" parent="1">
          <mxGeometry x="280" y="310" width="180" height="75" as="geometry" />
        </mxCell>
        <mxCell id="BR51yle5kO3aftTN3EHV-25" style="edgeStyle=orthogonalEdgeStyle;rounded=0;orthogonalLoop=1;jettySize=auto;html=1;exitX=1;exitY=0.5;exitDx=0;exitDy=0;entryX=1;entryY=0.5;entryDx=0;entryDy=0;dashed=1;" edge="1" parent="1" source="BR51yle5kO3aftTN3EHV-13" target="BR51yle5kO3aftTN3EHV-21">
          <mxGeometry relative="1" as="geometry" />
        </mxCell>
        <mxCell id="BR51yle5kO3aftTN3EHV-27" style="edgeStyle=orthogonalEdgeStyle;rounded=0;orthogonalLoop=1;jettySize=auto;html=1;exitX=0.5;exitY=1;exitDx=0;exitDy=0;" edge="1" parent="1" source="BR51yle5kO3aftTN3EHV-13">
          <mxGeometry relative="1" as="geometry">
            <mxPoint x="950" y="295" as="targetPoint" />
          </mxGeometry>
        </mxCell>
        <mxCell id="BR51yle5kO3aftTN3EHV-13" value="Iniciar protocolo de fallback (enviar os dados para a mina terrestre mais próxima)" style="ellipse;whiteSpace=wrap;html=1;" vertex="1" parent="1">
          <mxGeometry x="860" y="170" width="180" height="75" as="geometry" />
        </mxCell>
        <mxCell id="BR51yle5kO3aftTN3EHV-26" style="edgeStyle=orthogonalEdgeStyle;rounded=0;orthogonalLoop=1;jettySize=auto;html=1;exitX=0.5;exitY=0;exitDx=0;exitDy=0;" edge="1" parent="1" source="BR51yle5kO3aftTN3EHV-21">
          <mxGeometry relative="1" as="geometry">
            <mxPoint x="1050" y="575" as="targetPoint" />
          </mxGeometry>
        </mxCell>
        <mxCell id="BR51yle5kO3aftTN3EHV-32" style="edgeStyle=orthogonalEdgeStyle;rounded=0;orthogonalLoop=1;jettySize=auto;html=1;exitX=0;exitY=0.5;exitDx=0;exitDy=0;entryX=1;entryY=0.5;entryDx=0;entryDy=0;dashed=1;" edge="1" parent="1" source="BR51yle5kO3aftTN3EHV-21" target="BR51yle5kO3aftTN3EHV-8">
          <mxGeometry relative="1" as="geometry" />
        </mxCell>
        <mxCell id="BR51yle5kO3aftTN3EHV-21" value="Enviar dados para a&amp;nbsp;&lt;div&gt;central de controle&lt;/div&gt;" style="ellipse;whiteSpace=wrap;html=1;" vertex="1" parent="1">
          <mxGeometry x="960" y="615" width="180" height="75" as="geometry" />
        </mxCell>
        <mxCell id="BR51yle5kO3aftTN3EHV-36" value="" style="endArrow=classic;html=1;rounded=0;exitX=1;exitY=1;exitDx=0;exitDy=0;" edge="1" parent="1" source="BR51yle5kO3aftTN3EHV-8">
          <mxGeometry width="50" height="50" relative="1" as="geometry">
            <mxPoint x="520" y="815" as="sourcePoint" />
            <mxPoint x="770" y="595" as="targetPoint" />
          </mxGeometry>
        </mxCell>
        <mxCell id="BR51yle5kO3aftTN3EHV-38" value="" style="endArrow=classic;html=1;rounded=0;exitX=0.5;exitY=1;exitDx=0;exitDy=0;" edge="1" parent="1" source="BR51yle5kO3aftTN3EHV-10">
          <mxGeometry width="50" height="50" relative="1" as="geometry">
            <mxPoint x="520" y="715" as="sourcePoint" />
            <mxPoint x="780" y="705" as="targetPoint" />
            <Array as="points">
              <mxPoint x="540" y="765" />
              <mxPoint x="640" y="765" />
              <mxPoint x="780" y="765" />
            </Array>
          </mxGeometry>
        </mxCell>
        <mxCell id="BR51yle5kO3aftTN3EHV-40" value="" style="endArrow=classic;html=1;rounded=0;exitX=1;exitY=0;exitDx=0;exitDy=0;" edge="1" parent="1" source="BR51yle5kO3aftTN3EHV-9">
          <mxGeometry width="50" height="50" relative="1" as="geometry">
            <mxPoint x="490" y="475" as="sourcePoint" />
            <mxPoint x="900" y="385" as="targetPoint" />
          </mxGeometry>
        </mxCell>
        <mxCell id="BR51yle5kO3aftTN3EHV-41" value="&amp;lt;include&amp;gt;" style="text;html=1;align=center;verticalAlign=middle;resizable=0;points=[];autosize=1;strokeColor=none;fillColor=none;" vertex="1" parent="1">
          <mxGeometry x="480" y="175" width="80" height="30" as="geometry" />
        </mxCell>
        <mxCell id="BR51yle5kO3aftTN3EHV-42" value="&amp;lt;extend&amp;gt;" style="text;html=1;align=center;verticalAlign=middle;resizable=0;points=[];autosize=1;strokeColor=none;fillColor=none;" vertex="1" parent="1">
          <mxGeometry x="620" y="255" width="70" height="30" as="geometry" />
        </mxCell>
        <mxCell id="BR51yle5kO3aftTN3EHV-43" value="&amp;lt;extend&amp;gt;" style="text;html=1;align=center;verticalAlign=middle;resizable=0;points=[];autosize=1;strokeColor=none;fillColor=none;" vertex="1" parent="1">
          <mxGeometry x="780" y="185" width="70" height="30" as="geometry" />
        </mxCell>
        <mxCell id="BR51yle5kO3aftTN3EHV-44" value="&amp;lt;include&amp;gt;" style="text;html=1;align=center;verticalAlign=middle;resizable=0;points=[];autosize=1;strokeColor=none;fillColor=none;" vertex="1" parent="1">
          <mxGeometry x="1090" y="310" width="80" height="30" as="geometry" />
        </mxCell>
        <mxCell id="BR51yle5kO3aftTN3EHV-46" value="&amp;lt;extend&amp;gt;" style="text;html=1;align=center;verticalAlign=middle;resizable=0;points=[];autosize=1;strokeColor=none;fillColor=none;" vertex="1" parent="1">
          <mxGeometry x="865" y="550" width="70" height="30" as="geometry" />
        </mxCell>
        <mxCell id="BR51yle5kO3aftTN3EHV-47" value="&amp;lt;extend&amp;gt;" style="text;html=1;align=center;verticalAlign=middle;resizable=0;points=[];autosize=1;strokeColor=none;fillColor=none;" vertex="1" parent="1">
          <mxGeometry x="620" y="395" width="70" height="30" as="geometry" />
        </mxCell>
        <mxCell id="BR51yle5kO3aftTN3EHV-48" value="&amp;lt;include&amp;gt;" style="text;html=1;align=center;verticalAlign=middle;resizable=0;points=[];autosize=1;strokeColor=none;fillColor=none;" vertex="1" parent="1">
          <mxGeometry x="620" y="575" width="80" height="30" as="geometry" />
        </mxCell>
        <mxCell id="BR51yle5kO3aftTN3EHV-49" value="&amp;lt;include&amp;gt;" style="text;html=1;align=center;verticalAlign=middle;resizable=0;points=[];autosize=1;strokeColor=none;fillColor=none;" vertex="1" parent="1">
          <mxGeometry x="370" y="585" width="80" height="30" as="geometry" />
        </mxCell>
        <mxCell id="BR51yle5kO3aftTN3EHV-50" value="&amp;lt;include&amp;gt;" style="text;html=1;align=center;verticalAlign=middle;resizable=0;points=[];autosize=1;strokeColor=none;fillColor=none;" vertex="1" parent="1">
          <mxGeometry x="370" y="425" width="80" height="30" as="geometry" />
        </mxCell>
        <mxCell id="BR51yle5kO3aftTN3EHV-51" value="&lt;span style=&quot;font-weight: 700;&quot;&gt;&lt;font style=&quot;font-size: 24px;&quot;&gt;Gerenciamento de comunicação&lt;/font&gt;&lt;/span&gt;" style="text;html=1;align=center;verticalAlign=middle;resizable=0;points=[];autosize=1;strokeColor=none;fillColor=none;" vertex="1" parent="1">
          <mxGeometry x="440" y="73" width="390" height="40" as="geometry" />
        </mxCell>
      </root>
    </mxGraphModel>
  </diagram>
</mxfile>
